<?xml version="1.0" encoding="UTF-8"?>
<svg width="200px" height="160px" viewBox="0 0 200 160" version="1.1" xmlns="http://www.w3.org/2000/svg" xmlns:xlink="http://www.w3.org/1999/xlink">
    <!-- Generator: Sketch 50.2 (55047) - http://www.bohemiancoding.com/sketch -->
    <title>monitor-loading-progress</title>
    <desc>Created with Sketch.</desc>
    <defs></defs>
    <g id="Page-1" stroke="none" stroke-width="1" fill="none" fill-rule="evenodd">
        <g id="Media-Empty-State(2)" transform="translate(-88.000000, -162.000000)">
            <g id="monitor-loading-progress" transform="translate(89.000000, 163.000000)">
                <path d="M189.909091,91.4022857 C189.905614,54.2976156 167.327311,20.9232809 132.875188,7.0970765 C98.4230656,-6.72912794 59.0205199,1.77127099 33.3424218,28.5695019 C7.66432365,55.3677327 0.870867671,95.0785023 16.1818182,128.880857 L181.818182,128.880857 C187.16196,117.10874 189.920812,104.329233 189.909091,91.4022857 Z" id="Shape" fill="#C1BDB2" fill-rule="nonzero"></path>
                <path d="M10.3636364,128.880857 L187.636364,128.880857" id="Shape" stroke="#9E8C63" stroke-width="2.27272727" stroke-linecap="round" stroke-linejoin="round"></path>
                <path d="M0.136363636,128.880857 L5.81818182,128.880857" id="Shape" stroke="#9E8C63" stroke-width="2.27272727" stroke-linecap="round" stroke-linejoin="round"></path>
                <path d="M192.181818,128.880857 L197.863636,128.880857" id="Shape" stroke="#9E8C63" stroke-width="2.27272727" stroke-linecap="round" stroke-linejoin="round"></path>
                <ellipse id="Oval" fill="#C1BDB2" fill-rule="nonzero" cx="97.7045455" cy="154.548" rx="33.75" ry="3.88414286"></ellipse>
                <path d="M149.636364,63.8271429 C149.636372,61.6424401 148.766453,59.5475472 147.218621,58.0048614 C145.67079,56.4621755 143.572307,55.5985363 141.386364,55.6045714 L56.6136364,55.6045714 C54.4276928,55.5985363 52.3292104,56.4621755 50.7813785,58.0048614 C49.2335466,59.5475472 48.363628,61.6424401 48.3636364,63.8271429 L48.3636364,119.999571 L149.636364,119.999571 L149.636364,63.8271429 Z" id="Shape" fill="#EDE5D3" fill-rule="nonzero"></path>
                <path d="M116.022727,55.60454 L56.6136364,55.6045714 C54.4276928,55.5985363 52.3292104,56.4621755 50.7813785,58.0048614 C49.2335466,59.5475472 48.363628,61.6424401 48.3636364,63.8271429 L48.3636364,119.999571 L51.5909091,119.999571 L116.022727,55.60454 Z" id="Shape" fill="#FFFFFF" fill-rule="nonzero"></path>
                <polygon id="Shape" fill="#FFFFFF" fill-rule="nonzero" points="111.272727 144.531 86.7272727 144.531 88.25 132.265286 109.75 132.265286"></polygon>
                <polygon id="Shape" stroke="#182547" stroke-width="2.27272727" stroke-linecap="round" stroke-linejoin="round" points="111.272727 144.531 86.7272727 144.531 88.25 132.265286 109.75 132.265286"></polygon>
                <path d="M116.568182,150.663857 L81.4318182,150.663857 C80.78745,150.669646 80.183643,150.350164 79.8261974,149.814302 C79.4687518,149.27844 79.40591,148.598521 79.6590909,148.006286 C80.6799195,145.884405 82.8260575,144.533906 85.1818182,144.531 L112.818182,144.531 C115.173942,144.533906 117.32008,145.884405 118.340909,148.006286 C118.59409,148.598521 118.531248,149.27844 118.173803,149.814302 C117.816357,150.350164 117.21255,150.669646 116.568182,150.663857 Z" id="Shape" stroke="#182547" stroke-width="2.27272727" fill="#FFFFFF" fill-rule="nonzero" stroke-linecap="round" stroke-linejoin="round"></path>
                <path d="M141.386364,132.265286 C143.572307,132.271321 145.67079,131.407682 147.218621,129.864996 C148.766453,128.32231 149.636372,126.227417 149.636364,124.042714 L149.636364,119.999571 L48.3636364,119.999571 L48.3636364,124.042714 C48.363628,126.227417 49.2335466,128.32231 50.7813785,129.864996 C52.3292104,131.407682 54.4276928,132.271321 56.6136364,132.265286 L141.386364,132.265286 Z" id="Shape" stroke="#182547" stroke-width="2.27272727" fill="#FFFFFF" fill-rule="nonzero" stroke-linecap="round" stroke-linejoin="round"></path>
                <path d="M149.636364,63.8271429 C149.636372,61.6424401 148.766453,59.5475472 147.218621,58.0048614 C145.67079,56.4621755 143.572307,55.5985363 141.386364,55.6045714 L56.6136364,55.6045714 C54.4276928,55.5985363 52.3292104,56.4621755 50.7813785,58.0048614 C49.2335466,59.5475472 48.363628,61.6424401 48.3636364,63.8271429 L48.3636364,119.999571 L149.636364,119.999571 L149.636364,63.8271429 Z" id="Shape" stroke="#182547" stroke-width="2.27272727" stroke-linecap="round" stroke-linejoin="round"></path>
                <path d="M100.363636,126.132429 C100.363636,126.885114 99.7531156,127.495286 99,127.495286 C98.2468844,127.495286 97.6363636,126.885114 97.6363636,126.132429 C97.6363636,125.379743 98.2468844,124.769571 99,124.769571 C99.7531156,124.769571 100.363636,125.379743 100.363636,126.132429 Z" id="Shape" stroke="#9E8C63" stroke-width="2.27272727" stroke-linecap="round" stroke-linejoin="round"></path>
                <path d="M124,103.599857 L74,103.599857 C71.1056198,103.413617 68.8533707,101.013073 68.8533707,98.1143571 C68.8533707,95.2156418 71.1056198,92.8150974 74,92.6288571 L124,92.6288571 C127.007248,92.6538002 129.431922,95.0973668 129.431818,98.103 C129.444437,101.117484 127.016131,103.574867 124,103.599857 Z" id="Shape" stroke="#182547" stroke-width="2.27272727" fill="#EDE5D3" fill-rule="nonzero" stroke-linejoin="round"></path>
                <path d="M110.681818,92.6288571 L74,92.6288571 C71.1056198,92.8150974 68.8533707,95.2156418 68.8533707,98.1143571 C68.8533707,101.013073 71.1056198,103.413617 74,103.599857 L110.681818,103.599857 L110.681818,92.6288571 Z" id="Shape" stroke="#4550E5" stroke-width="2.27272727" fill="#FFFFFF" fill-rule="nonzero" stroke-linejoin="round"></path>
                <path d="M110.681818,92.6288571 L74,92.6288571 C71.1056198,92.8150974 68.8533707,95.2156418 68.8533707,98.1143571 C68.8533707,101.013073 71.1056198,103.413617 74,103.599857 L110.681818,103.599857 L110.681818,92.6288571 Z" id="Shape" stroke="#182547" stroke-width="2.27272727" stroke-linejoin="round"></path>
                <path d="M81.2954545,18.9437143 C80.2370389,18.924063 79.2597885,19.5084395 78.7767325,20.4498605 C78.2936765,21.3912814 78.3891211,22.5254436 79.0227273,23.373 L96.7272727,46.2917143 C97.252878,46.9615492 98.0573556,47.3527867 98.9090909,47.3527867 C99.7608262,47.3527867 100.565304,46.9615492 101.090909,46.2917143 L118.795455,23.373 C119.429061,22.5254436 119.524505,21.3912814 119.041449,20.4498605 C118.558393,19.5084395 117.581143,18.924063 116.522727,18.9437143 L109.704545,18.9437143 L109.704545,6.22371429 C109.704545,3.20042867 107.252287,0.749571429 104.227273,0.749571429 L93.5,0.749571429 C90.4749858,0.749571429 88.0227273,3.20042867 88.0227273,6.22371429 L88.0227273,18.9437143 L81.2954545,18.9437143 Z" id="Shape" fill="#FFFFFF" fill-rule="nonzero"></path>
                <path d="M81.2954545,18.9437143 C80.2370389,18.924063 79.2597885,19.5084395 78.7767325,20.4498605 C78.2936765,21.3912814 78.3891211,22.5254436 79.0227273,23.373 L96.7272727,46.2917143 C97.252878,46.9615492 98.0573556,47.3527867 98.9090909,47.3527867 C99.7608262,47.3527867 100.565304,46.9615492 101.090909,46.2917143 L118.795455,23.373 C119.429061,22.5254436 119.524505,21.3912814 119.041449,20.4498605 C118.558393,19.5084395 117.581143,18.924063 116.522727,18.9437143 L109.704545,18.9437143 L109.704545,6.22371429 C109.704545,3.20042867 107.252287,0.749571429 104.227273,0.749571429 L93.5,0.749571429 C90.4749858,0.749571429 88.0227273,3.20042867 88.0227273,6.22371429 L88.0227273,18.9437143 L81.2954545,18.9437143 Z" id="Shape" stroke="#9E8C63" stroke-width="2.27272727" stroke-linejoin="round"></path>
            </g>
        </g>
    </g>
</svg>