<?xml version="1.0" encoding="UTF-8"?>
<svg width="97px" height="72px" viewBox="0 0 97 72" version="1.1" xmlns="http://www.w3.org/2000/svg" xmlns:xlink="http://www.w3.org/1999/xlink">
    <!-- Generator: Sketch 50.2 (55047) - http://www.bohemiancoding.com/sketch -->
    <title>y&amp;dLogo (1)</title>
    <desc>Created with Sketch.</desc>
    <defs></defs>
    <g id="Page-1" stroke="none" stroke-width="1" fill="none" fill-rule="evenodd">
        <g id="y&amp;dLogo-(1)" fill-rule="nonzero">
            <g id="Group">
                <path d="M48.9,71.4 C48.4,71 47.9,70.6 47.4,70.2 C36.8,58.9 26.2,47.6 15.6,36.3 C13.4,33.9 11.7,31.3 10.6,28.2 C10.3,27.4 10.3,26.8 11.1,26.3 C11.9,25.8 12.6,25.2 13.4,24.6 C13.5,25 13.7,25.2 13.7,25.5 C14.4,28.3 15.7,30.8 17.7,32.9 C28,44 38.4,55 48.9,66.1 C49,66.2 49.1,66.3 49.6,66.8 C49.8,66.4 49.9,66 50.2,65.7 C60.1,55.2 69.9,44.7 79.8,34.3 C82.1,31.9 84,29.3 84.9,25.8 C85.9,26.8 86.7,27.5 87.4,28.4 C87.6,28.7 87.6,29.3 87.4,29.7 C86.4,32.3 84.8,34.5 82.8,36.5 C72.9,47 63,57.5 53.1,68 C52,69.2 50.7,70.3 49.5,71.5 C49.4,71.4 49.2,71.4 48.9,71.4 Z" id="Shape" fill="#182547"></path>
                <path d="M49.2,13.5 C51.4,11.1 53.6,8.9 55.7,6.7 C58.9,3.3 62.7,1.2 67.3,0.6 C74.4,-0.2 80.1,2.4 84.5,7.8 C87.4,11.3 88.8,15.4 89.1,19.9 C89.1,20.2 89.1,20.5 89.1,20.9 C87.9,20.2 86.7,19.5 85.6,18.8 C85.3,18.6 85.2,18.1 85.1,17.7 C83.8,10.9 78.7,5.7 72,4.6 C66.9,3.6 62.4,5.3 58.8,9 C56.2,11.6 53.7,14.4 51.1,17.1 C49.7,18.5 48.9,18.5 47.5,17.1 C45.2,14.7 42.9,12.2 40.6,9.8 C36.5,5.3 31.4,3.4 25.5,4.8 C19.3,6.3 15.6,10.5 13.8,16.5 C13.6,17.3 13.2,17.8 12.4,18.1 C11.5,18.5 10.6,19 9.5,19.5 C9.6,18.5 9.7,17.6 9.9,16.7 C11.4,8.7 17.6,2.3 25.6,0.8 C31.9,-0.5 37.4,1.4 42,5.8 C44.2,7.9 46.2,10.2 48.3,12.4 C48.6,12.7 48.9,13.1 49.2,13.5 Z" id="Shape" fill="#182547"></path>
                <path d="M48.5,38 C48.9,38 49.4,38.1 49.9,38.1 C49.8,38.4 49.7,38.7 49.5,38.9 C49,39.4 48.4,40.1 47.7,39.5 C47.1,38.9 47.5,38.1 48.1,37.6 C48.7,37.1 49.4,36.7 50.1,36.2 C49.8,36.1 49.6,36 49.3,35.9 C48.3,35.8 48,35.4 48.6,34.6 C49,34 49.6,33.6 50.1,33.1 C50.2,33.2 50.3,33.2 50.4,33.3 C50.4,34 50.4,34.6 50.4,35.3 C50.5,35.3 50.6,35.3 50.7,35.3 C51,34.4 51.6,33.4 50.2,32.6 C54.4,28.9 58.3,25.2 62.5,21.8 C65.8,19.1 69.7,17.7 73.9,17.3 C76.8,17 79.6,17.6 82.3,18.6 C88.8,21.1 93.8,25.4 95.6,32.4 C97.7,40.5 95.1,47.2 88.7,52.4 C82.4,57.5 75.4,58.6 67.7,55.9 C67.4,55.8 67.2,55.7 66.9,55.6 C66.8,55.6 66.7,55.5 66.6,55.4 C67.4,54.5 68.2,53.6 69.1,52.8 C69.3,52.6 69.9,52.5 70.2,52.6 C80,56.1 89.7,48.5 91.4,40.9 C92.4,36.6 91.8,32.6 89.3,29 C84.7,22.4 75.6,18.2 66.3,24.2 C64.8,25.2 63.4,26.4 62.1,27.6 C58.9,30.5 55.8,33.4 52.6,36.3 C52.1,36.8 51.6,37.3 50.7,37.2 C50,37.1 49.2,37.7 48.4,38 C48.4,37.8 48.4,37.9 48.5,38 Z" id="Shape" fill="#9E8C63"></path>
                <path d="M28.4,51.5 C29.2,52.4 30.1,53.3 31.1,54.4 C28.7,55.7 26.2,56.5 23.6,57 C14.8,58.5 5.1,52.8 1.6,44.2 C-1.7,35.8 1.4,26.4 9.4,21 C17.6,15.4 28.2,16.1 35.5,22.8 C38.4,25.4 41.3,28 44.2,30.6 C45.3,31.6 45.5,32.9 44.7,33.7 C43.9,34.6 42.4,34.6 41.3,33.6 C38.2,30.9 35.2,28.1 32.2,25.5 C27.6,21.5 22.3,19.9 16.4,22 C10.3,24.2 6.2,28.4 5,34.9 C4.3,38.8 5.1,42.4 7.4,45.6 C11.2,51.1 19.1,55.8 28,51.7 C28,51.6 28.2,51.6 28.4,51.5 Z" id="Shape" fill="#9E8C63"></path>
                <path d="M47.3,35.3 C47.6,35.7 47.7,36 47.9,36.2 C47.5,37 46.8,37.6 46.8,38.4 C46.7,39.1 47.3,39.8 47.7,40.7 C44.1,44 40.2,47.6 36.2,51.2 C35.2,50.2 34.3,49.2 33.4,48.2 C38.1,43.8 42.7,39.6 47.3,35.3 Z" id="Shape" fill="#9E8C63"></path>
                <path d="M64.5,48.9 C63.5,50 62.6,50.9 61.6,52 C58.5,49.2 55.4,46.5 52.4,43.7 C51.5,42.9 51.5,41.8 52.1,41 C52.8,40.1 54.2,39.9 55.2,40.7 C56,41.3 56.8,42.1 57.5,42.7 C59.8,44.8 62.1,46.8 64.5,48.9 Z" id="Shape" fill="#9E8C63"></path>
                <path d="M34.2,38.2 C33.8,38.4 33.6,38.7 33.3,38.7 C32.8,38.7 32.1,38.7 31.8,38.4 C31.5,38.2 31.5,37.4 31.6,37 C31.9,36.1 32.3,35.2 32.6,34.3 C32.7,34.2 32.6,34 32.6,33.8 C31.8,33.7 31,34.1 30.6,34.8 C30.2,35.5 30.2,36.4 30.2,36.4 C30,36.9 29.6,37.2 29.5,35.5 C29.4,35.1 29.6,34.5 29.9,34.1 C30.1,33.8 30.5,33.6 30.9,33.4 C31.8,33 32.7,32.6 33.5,33.4 C34.2,34.1 33.6,35 33.3,35.7 C33.1,36.1 32.9,36.6 32.8,37 C32.7,37.2 32.8,37.6 33,37.7 C33.2,37.8 33.6,37.7 33.7,37.6 C34.2,37.1 34.6,36.5 34.9,35.9 C35.3,35.2 35.5,34.5 35.9,33.9 C36.1,33.5 36.7,33.3 37.2,32.9 C36.4,35.1 35.7,37.4 35,39.3 C35.1,39.4 34.9,39.2 35,39.3 C35.4,39 36.5,38.2 36.9,37.9 C36.9,38 36.7,38.5 36.6,38.5 C35.6,39.6 34.7,40.7 33.7,41.6 C33.4,42 32.6,42.1 32,42 C31.6,41.9 31.3,41.6 31.4,40.9 C31.4,40.7 31.6,40.1 32,39.9 C32.9,39.5 34.3,39.9 34.2,38.2 Z" id="Shape" fill="#C1BDB2"></path>
                <path d="M64.2,37.8 C65.3,36.6 64.8,34.4 67,33.8 C66.4,35.5 65.8,36.9 65.2,38.4 C66.1,39 67,38.9 67.7,38.1 C68.7,37.1 68.8,35.1 68.1,34.2 C67.4,33.4 66,33.2 64.9,33.8 C63.9,34.3 63.7,35.1 63.9,36.6 C63.5,36.2 62.9,35.9 62.8,35.5 C62.7,35.1 63,34.4 63.4,34.1 C64.5,32.9 66.8,32.7 68.3,33.5 C69.8,34.3 70.2,35.9 69.5,37.7 C68.8,39.3 67.5,40 66,39.5 C65.3,39.3 64.7,39 64,39.5 C63.9,39.5 63.8,39.6 63.8,39.5 C63.2,39.3 62.5,39.2 62,39 C61.9,39 61.9,38.1 62,38.1 C62.6,37.9 63.2,37.8 63.8,37.8 C63.9,37.6 64.1,37.7 64.2,37.8 Z" id="Shape" fill="#C1BDB2"></path>
            </g>
            <path d="M33.8,40.1 C33.8,39.8 33.3,40.3 33,40.3 C32.7,40.3 32.5,40.8 32.5,41 C32.5,41.3 32.7,41.2 33,41.2 C33.3,41.2 33.8,40.4 33.8,40.1 Z" id="Shape" fill="#FFFFFF"></path>
        </g>
    </g>
</svg>